<svg width="26" height="26" viewBox="0 0 26 26" fill="none" xmlns="http://www.w3.org/2000/svg">
<path d="M25.5 13.2675C25.5 20.271 19.8223 25.955 12.8125 25.955C5.80266 25.955 0.125 20.271 0.125 13.2675C0.125 6.25767 5.80266 0.580017 12.8125 0.580017C19.8223 0.580017 25.5 6.25767 25.5 13.2675Z" fill="#283544"/>
<path d="M18.7594 10.057C18.6902 10.0974 17.042 10.9498 17.042 12.8396C17.1197 14.9949 19.1219 15.7508 19.1562 15.7508C19.1219 15.7911 18.854 16.7804 18.0603 17.8174C17.4304 18.7107 16.7313 19.6113 15.6697 19.6113C14.6599 19.6113 14.2974 19.0159 13.1322 19.0159C11.8809 19.0159 11.5268 19.6113 10.5688 19.6113C9.5072 19.6113 8.7563 18.6624 8.09209 17.7775C7.22918 16.6194 6.49574 14.8019 6.46984 13.0568C6.45239 12.132 6.64265 11.223 7.12561 10.4509C7.80727 9.37304 9.02424 8.64133 10.3532 8.6172C11.3715 8.5852 12.2777 9.26866 12.8992 9.26866C13.4947 9.26866 14.6081 8.6172 15.8678 8.6172C16.4116 8.61772 17.8616 8.77036 18.7594 10.057ZM12.813 8.43257C12.6318 7.58808 13.1322 6.74359 13.5983 6.2049C14.1938 5.55344 15.1344 5.11127 15.9455 5.11127C15.9973 5.95575 15.6691 6.78398 15.0826 7.38719C14.5563 8.03865 13.6501 8.52908 12.813 8.43257Z" fill="white"/>
</svg>
