<svg width="30" height="30" viewBox="0 0 30 30" fill="none" xmlns="http://www.w3.org/2000/svg">
<path d="M27.875 15.5493C27.875 14.5061 27.7886 13.7448 27.6017 12.9554H15.4464V17.6638H22.5813C22.4375 18.8339 21.6607 20.5961 19.9345 21.7802L19.9103 21.9378L23.7535 24.8556L24.0198 24.8817C26.4652 22.6684 27.875 19.4119 27.875 15.5493Z" fill="#4285F4"/>
<path d="M15.4456 27.955C18.9411 27.955 21.8755 26.8272 24.019 24.8818L19.9336 21.7803C18.8404 22.5274 17.3731 23.049 15.4456 23.049C12.022 23.049 9.11629 20.8358 8.08048 17.7767L7.92866 17.7893L3.93239 20.8203L3.88013 20.9627C6.00906 25.1072 10.3821 27.955 15.4456 27.955Z" fill="#34A853"/>
<path d="M8.08129 17.7768C7.80798 16.9874 7.64981 16.1415 7.64981 15.2675C7.64981 14.3934 7.80798 13.5476 8.06691 12.7582L8.05967 12.5901L4.01331 9.51047L3.88092 9.57218C3.00348 11.2921 2.5 13.2234 2.5 15.2675C2.5 17.3116 3.00348 19.2429 3.88092 20.9627L8.08129 17.7768Z" fill="#FBBC05"/>
<path d="M15.4457 7.48585C17.8767 7.48585 19.5165 8.51494 20.4516 9.37493L24.1053 5.8788C21.8614 3.83471 18.9411 2.58005 15.4457 2.58005C10.3821 2.58005 6.00908 5.42766 3.88013 9.57221L8.06613 12.7582C9.11632 9.69914 12.0221 7.48585 15.4457 7.48585Z" fill="#EB4335"/>
</svg>
