<svg width="24" height="24" viewBox="0 0 24 24" fill="none" xmlns="http://www.w3.org/2000/svg">
<path d="M14 15.4999V13.9999H4.25229C3.01027 13.9999 2.00342 15.0068 2.00342 16.2488V16.8265C2.00342 17.7193 2.32194 18.5828 2.9017 19.2617C4.468 21.0959 6.85401 22.0011 9.99988 22.0011C11.5103 22.0011 12.8459 21.7924 14 21.3725V19.7523C12.9184 20.2499 11.5889 20.5011 9.99988 20.5011C7.26157 20.5011 5.29569 19.7553 4.04239 18.2876C3.69453 17.8802 3.50342 17.3622 3.50342 16.8265V16.2488C3.50342 15.8352 3.8387 15.4999 4.25229 15.4999H14ZM9.99988 2.00464C12.7613 2.00464 14.9999 4.24321 14.9999 7.00464C14.9999 9.76606 12.7613 12.0046 9.99988 12.0046C7.23845 12.0046 4.99988 9.76606 4.99988 7.00464C4.99988 4.24321 7.23845 2.00464 9.99988 2.00464ZM9.99988 3.50464C8.06688 3.50464 6.49988 5.07164 6.49988 7.00464C6.49988 8.93764 8.06688 10.5046 9.99988 10.5046C11.9329 10.5046 13.4999 8.93764 13.4999 7.00464C13.4999 5.07164 11.9329 3.50464 9.99988 3.50464ZM21.2544 10C22.2209 10 23.0044 10.7835 23.0044 11.75V21.2501C23.0044 22.2166 22.2209 23.0001 21.2544 23.0001H16.75C15.7835 23.0001 15 22.2166 15 21.2501V11.75C15 10.7835 15.7835 10 16.75 10H21.2544ZM19.2522 18.997H18.7522L18.6504 19.0038C18.2844 19.0535 18.0022 19.3673 18.0022 19.747C18.0022 20.1612 18.338 20.497 18.7522 20.497H19.2522L19.354 20.4902C19.7201 20.4405 20.0022 20.1267 20.0022 19.747C20.0022 19.3328 19.6664 18.997 19.2522 18.997Z" fill="#1E87FA"/>
</svg>
