<svg width="24" height="24" viewBox="0 0 24 24" fill="none" xmlns="http://www.w3.org/2000/svg">
<path d="M4.18412 4.11244C4.33657 3.98818 4.54771 3.96483 4.72363 4.05279L19.7236 11.5528C19.893 11.6375 20 11.8106 20 12C20 12.1894 19.893 12.3625 19.7236 12.4472L4.72363 19.9472C4.54771 20.0352 4.33657 20.0118 4.18412 19.8876C4.03167 19.7633 3.96623 19.5612 4.0169 19.3712L5.98255 12L4.0169 4.62884C3.96623 4.4388 4.03167 4.2367 4.18412 4.11244ZM6.88416 12.5L5.26911 18.5564L18.382 12L5.26911 5.44357L6.88416 11.5H13.5C13.7762 11.5 14 11.7239 14 12C14 12.2761 13.7762 12.5 13.5 12.5H6.88416Z" fill="white"/>
</svg>
