<svg width="360" height="49" viewBox="0 0 360 49" fill="none" xmlns="http://www.w3.org/2000/svg">
<path d="M-18 55.9379C-18 47.9379 4.78846 36.4379 26.5641 33.9379C48.3397 31.4379 54.4167 34.2503 80.2436 37.4379C124.808 42.9381 140.5 46 182 44C223.5 42 240.5 43.5 274.5 35.5C303.092 28.7725 306.224 23.5 328 11.5C353.863 2.87884 371.637 7.06644 377.17 8.84111C377.653 -5.31396 379 2.11403 379 9.50003C379 9.50003 378.376 9.22787 377.17 8.84111C377.064 11.9342 377 16.0579 377 21.4378V54.9377C355.016 54.9377 5.05654 55.9379 -18 55.9379Z" fill="#E0F2FF"/>
</svg>
